<?xml version="1.0" encoding="UTF-8"?>
<svg width="25px" height="21px" viewBox="0 0 25 21" version="1.1" xmlns="http://www.w3.org/2000/svg" xmlns:xlink="http://www.w3.org/1999/xlink">
    <g id="Page-1" stroke="none" stroke-width="1" fill="none" fill-rule="evenodd">
        <g id="iPhone-7-Copy" transform="translate(-90.000000, -569.000000)" fill-rule="nonzero" fill="#EEEEEE">
            <g id="Twitter" transform="translate(90.000000, 565.000000)">
                <path d="M7.862,24.313969 C17.296,24.313969 22.456,16.497969 22.456,9.71996903 C22.456,9.49796903 22.456,9.27696903 22.441,9.05696903 C23.4448314,8.33087989 24.3113555,7.43184843 25,6.40196903 C24.0638791,6.8167708 23.0708293,7.08879768 22.054,7.20896903 C23.124744,6.56795109 23.9261235,5.55974102 24.309,4.37196903 C23.3021575,4.96942435 22.2006461,5.39048105 21.052,5.61696903 C19.4620828,3.92636331 16.9357194,3.51258162 14.8895493,4.60764896 C12.8433792,5.7027163 11.786275,8.03429476 12.311,10.294969 C8.18689574,10.0882186 4.34447578,8.1402923 1.74,4.93596903 C0.378622756,7.27961376 1.07398788,10.2778285 3.328,11.782969 C2.5117412,11.7587766 1.71327937,11.5385822 1,11.140969 L1,11.205969 C1.00066813,13.647562 2.72175149,15.7505042 5.115,16.233969 C4.3598696,16.4399091 3.56758059,16.4700133 2.799,16.321969 C3.47094793,18.4113919 5.39657456,19.8427529 7.591,19.883969 C5.77473504,21.311401 3.53105951,22.0862968 1.221,22.083969 C0.812903569,22.0831856 0.405204065,22.0584765 0,22.009969 C2.34563595,23.5152456 5.0749134,24.313686 7.862,24.309969" id="Shape"></path>
            </g>
        </g>
    </g>
</svg>
