<svg width="549px" height="175px" viewBox="0 0 549 175" xmlns="http://www.w3.org/2000/svg">
  <g id="Page-1" fill="none" fill-rule="evenodd">
    <g id="Artboard-3" transform="translate(-31 -57)" fill="#000">
      <path d="M131.166 146.766c-7.813.26-13.542.39-17.187.39-5.6 0-13.347-.13-23.243-.39a394.326 394.326 0 0 1-7.617 8.056 546.858 546.858 0 0 1-8.496 8.594 886.488 886.488 0 0 1-6.885 6.738c-1.92 1.856-3.5 3.402-4.736 4.639-7.227 7.031-11.93 11.621-14.111 13.77a57.602 57.602 0 0 1-6.885 5.81c-2.409 1.725-4.623 2.588-6.64 2.588-2.28 0-3.419-1.042-3.419-3.125 0-2.279 1.628-5.794 4.883-10.547 3.255-4.753 6.934-8.952 11.035-12.598 4.102-3.645 7.455-5.468 10.059-5.468.716 0 1.725.325 3.027.976l18.555-19.824c-2.344-.326-5.404-.537-9.18-.635-3.776-.097-6.315-.374-7.617-.83-1.302-.456-1.953-1.562-1.953-3.32 0-2.8 2.995-7.194 8.984-13.184 3.255-3.32 6.315-5.436 9.18-6.347 2.865-.912 8.333-1.4 16.406-1.465-4.752.65-8.122 1.416-10.107 2.295-1.986.879-3.076 2.197-3.272 3.955h5.225c1.595 0 3.678-.017 6.25-.05 2.572-.032 4.476-.08 5.713-.146 10.677-10.416 20.377-19.482 29.101-27.197a345.96 345.96 0 0 1 27.588-21.972c9.668-6.934 19.97-13.298 30.908-19.092 2.149 2.8 3.223 5.729 3.223 8.789 0 2.539-.83 5.469-2.49 8.789-1.66 3.32-5.176 9.554-10.547 18.701s-10.824 18.864-16.357 29.15c1.822 0 3.336.017 4.54.05 1.205.032 2.49.08 3.858.146 3.71 0 5.973.065 6.787.195.814.13 1.22.781 1.22 1.953 0 .521-.504 1.449-1.513 2.783-1.009 1.335-2.783 3.549-5.322 6.641a294.806 294.806 0 0 0-7.422 9.424l-14.355 1.172c-7.618 14.323-11.426 22.396-11.426 24.218 0 2.67 1.4 4.004 4.199 4.004 1.367 0 7.031-2.864 16.992-8.593l-.781 5.175c-5.339 4.037-9.489 7.21-12.451 9.522-2.963 2.311-5.534 4.232-7.715 5.762-2.181 1.53-4.167 2.669-5.957 3.418-1.79.748-3.597 1.123-5.42 1.123-2.149 0-4.264-.993-6.348-2.979-2.083-1.986-3.125-4.801-3.125-8.447 0-1.498.554-3.63 1.66-6.397a104.92 104.92 0 0 1 3.565-7.959c1.27-2.539 4.476-8.626 9.619-18.261zm-18.457-22.168l31.64-.586a6199.404 6199.404 0 0 1 9.034-15.332c2.311-3.907 4.85-8.155 7.617-12.744 2.767-4.59 5.143-8.48 7.129-11.67a684.151 684.151 0 0 0 6.592-10.84c-4.688 2.93-9.473 6.185-14.356 9.765-4.883 3.581-10.384 7.894-16.504 12.94-6.12 5.045-11.556 9.733-16.308 14.062-4.753 4.33-9.7 9.131-14.844 14.405zm125.781 13.965c-11.458 12.76-17.187 21.647-17.187 26.66 0 2.8 1.139 4.199 3.418 4.199 1.888 0 4.345-.993 7.373-2.979 3.027-1.985 7.763-5.517 14.209-10.595v6.738c-9.245 9.115-16.341 15.69-21.29 19.726-4.947 4.037-8.984 6.055-12.109 6.055-5.338 0-8.008-3.515-8.008-10.547 0-2.083.326-4.134.977-6.152s1.546-4.118 2.686-6.299c1.139-2.18 2.88-5.306 5.224-9.375a1148.55 1148.55 0 0 1 8.106-13.818c-3.711 1.888-8.366 5.631-13.965 11.23-3.646 3.516-6.738 6.852-9.278 10.01a382.094 382.094 0 0 0-8.154 10.547c-2.897 3.874-5.013 6.478-6.347 7.812-1.335 1.335-2.686 2.002-4.053 2.002-2.084 0-4.004-2.18-5.762-6.543-1.758-4.362-2.637-9.44-2.637-15.234 0-3.58.407-6.38 1.221-8.398.814-2.019 2.425-4.883 4.834-8.594 4.492-6.901 8.366-11.963 11.621-15.186 3.255-3.222 6.38-4.834 9.375-4.834 2.083 0 3.76.358 5.03 1.075 1.269.716 1.904 1.822 1.904 3.32 0 .65-.196 1.334-.586 2.05a12.06 12.06 0 0 1-1.319 1.954c-.488.586-1.513 1.725-3.076 3.418-10.286 11.393-15.43 18.782-15.43 22.168 0 1.888.62 2.832 1.856 2.832.781 0 2.295-1.254 4.541-3.76 2.246-2.507 5.143-5.794 8.691-9.863 3.549-4.07 7.748-8.317 12.598-12.744 4.85-4.428 10.368-8.692 16.553-12.793 3.45-2.41 6.315-3.614 8.594-3.614 1.041 0 2.067 1.433 3.076 4.297 1.009 2.865 1.513 5.762 1.513 8.692 0 1.432-1.4 3.613-4.199 6.542zm41.504-33.008h4.2c3.45-6.185 6.575-10.563 9.374-13.135 2.8-2.572 5.99-3.858 9.57-3.858 3.581 0 5.372.814 5.372 2.442 0 .781-1.4 2.897-4.2 6.348-2.799 3.45-4.915 6.347-6.347 8.691 2.213.26 4.183.488 5.908.684 1.725.195 3.076.358 4.053.488-3.711 6.9-8.366 13.965-13.965 21.191-1.823-.13-3.353-.244-4.59-.342l-3.76-.293c-1.27-.097-2.815-.211-4.638-.341-3.516 5.664-6.462 10.726-8.838 15.185-2.377 4.46-4.2 8.545-5.469 12.256-1.27 3.711-1.904 7.227-1.904 10.547 0 4.492 1.79 6.738 5.37 6.738 2.475 0 5.714-1.318 9.718-3.955s9.358-6.69 16.064-12.158v6.543c-17.578 19.076-30.566 28.613-38.965 28.613-2.93 0-5.29-1.14-7.08-3.418-1.79-2.278-2.685-5.208-2.685-8.789 0-2.409.504-5.273 1.513-8.594 1.01-3.32 2.816-8.333 5.42-15.039a98.582 98.582 0 0 0-2.588 2.295 368.02 368.02 0 0 1-2.246 2.051c-.683.619-1.416 1.27-2.197 1.953-.781.684-1.563 1.384-2.344 2.1v-6.738c6.836-5.73 15.104-15.788 24.805-30.176a97.74 97.74 0 0 0-2.734-.147 80.326 80.326 0 0 0-3.028-.049c-3.841 0-6.706.26-8.594.782-.78.195-1.513.407-2.197.634-.683.228-1.155.342-1.416.342-.26 0-.39-.195-.39-.586 0-2.148 1.334-5.37 4.003-9.668 2.149-3.646 4.183-6.347 6.104-8.105 1.92-1.758 4.264-2.946 7.031-3.565 2.767-.618 6.657-.927 11.67-.927zm88.77 50.683v6.153c-5.664 5.794-10.563 10.53-14.698 14.209-4.134 3.678-7.747 6.461-10.84 8.35-3.092 1.887-5.712 2.831-7.86 2.831-5.079 0-7.618-2.995-7.618-8.984 0-4.818 1.579-10.4 4.736-16.748 3.158-6.348 7.699-13.818 13.623-22.412a57.159 57.159 0 0 0-8.3 5.615c-2.605 2.116-4.916 4.33-6.934 6.64a416.733 416.733 0 0 0-5.078 5.909c-4.232 4.752-8.3 9.619-12.207 14.6-3.906 4.98-6.543 8.219-7.91 9.716-1.367 1.498-2.67 2.246-3.907 2.246-5.078 0-7.617-6.25-7.617-18.75 0-4.101.619-8.626 1.856-13.574s4.557-11.49 9.96-19.629c11.394-17.057 21.143-31.006 29.249-41.846 8.105-10.84 14.827-19.042 20.166-24.609 5.338-5.566 8.919-8.284 10.742-8.154 2.279.195 4.118.65 5.518 1.367 1.4.716 2.1 1.53 2.1 2.441 0 1.628-1.124 4.314-3.37 8.057-2.246 3.744-6.103 9.587-11.572 17.53-5.925 8.398-10.124 14.306-12.598 17.724-2.474 3.418-6.169 8.268-11.084 14.55-4.915 6.283-9.407 11.882-13.476 16.798-4.07 4.915-8.708 10.237-13.916 15.966v11.72c8.724-9.701 16.276-17.644 22.656-23.829 6.38-6.185 11.784-10.856 16.21-14.014 4.428-3.157 7.683-4.736 9.766-4.736 1.953 0 3.776 1.156 5.47 3.467 1.692 2.311 2.538 4.215 2.538 5.713 0 .65-.325 1.465-.976 2.441-4.688 5.6-8.415 10.238-11.182 13.916-2.767 3.679-4.9 6.966-6.397 9.863-1.497 2.898-2.246 5.388-2.246 7.471 0 3.06 1.465 4.59 4.395 4.59 3.125 0 10.058-4.2 20.8-12.598zm62.793-.195v6.543c-4.297 3.906-7.748 6.51-10.352 7.812-2.604 1.303-6.348 1.823-11.23 1.563C401.51 181.987 394.057 187 387.61 187c-3.646 0-6.966-1.204-9.96-3.613-2.995-2.41-5.388-5.697-7.178-9.864-1.79-4.166-2.686-8.821-2.686-13.964 0-4.167 1.384-8.79 4.15-13.868 2.767-5.078 6.348-9.814 10.743-14.209 4.394-4.394 9.098-7.942 14.111-10.644s9.668-4.053 13.965-4.053c3.06 0 5.469.472 7.226 1.416 1.758.944 2.637 2.263 2.637 3.955 0 1.302-.749 2.8-2.246 4.492 2.474.521 4.167 1.384 5.078 2.588.912 1.205 1.367 3.402 1.367 6.592 0 3.125-.732 7.064-2.197 11.817a58.99 58.99 0 0 1-6.006 13.378l1.758 1.758h1.465c1.107 0 2.197-.276 3.271-.83a21.79 21.79 0 0 0 2.881-1.758c.847-.618 2.702-2.002 5.567-4.15zm-20.118-25.684c-5.403 3.256-10.026 6.202-13.867 8.838-3.84 2.637-7.096 5.306-9.765 8.008-2.67 2.702-4.46 5.42-5.371 8.154-1.628 7.292-2.442 11.23-2.442 11.817 0 4.297 2.995 6.445 8.985 6.445 2.799 0 7.486-2.409 14.062-7.226-1.107-3.06-1.66-5.99-1.66-8.79 0-4.101.846-8.284 2.539-12.548 1.693-4.265 4.2-9.164 7.52-14.698zm85.743 8.203c-11.459 12.761-17.188 21.648-17.188 26.66 0 2.8 1.14 4.2 3.418 4.2 1.888 0 4.346-.993 7.373-2.979 3.028-1.985 7.764-5.517 14.21-10.595v6.738c-9.246 9.115-16.342 15.69-21.29 19.726-4.948 4.037-8.984 6.055-12.11 6.055-5.338 0-8.007-3.515-8.007-10.547 0-2.083.325-4.134.976-6.152s1.547-4.118 2.686-6.299c1.14-2.18 2.88-5.306 5.225-9.375a1148.55 1148.55 0 0 1 8.105-13.818c-3.71 1.888-8.366 5.631-13.965 11.23-3.646 3.516-6.738 6.852-9.277 10.01a382.094 382.094 0 0 0-8.154 10.547c-2.898 3.874-5.013 6.478-6.348 7.812-1.335 1.335-2.686 2.002-4.053 2.002-2.083 0-4.004-2.18-5.762-6.543-1.757-4.362-2.636-9.44-2.636-15.234 0-3.58.407-6.38 1.22-8.398.814-2.019 2.426-4.883 4.834-8.594 4.493-6.901 8.366-11.963 11.622-15.186 3.255-3.222 6.38-4.834 9.375-4.834 2.083 0 3.76.358 5.029 1.075 1.27.716 1.904 1.822 1.904 3.32 0 .65-.195 1.334-.586 2.05a12.06 12.06 0 0 1-1.318 1.954c-.488.586-1.514 1.725-3.076 3.418-10.287 11.393-15.43 18.782-15.43 22.168 0 1.888.618 2.832 1.855 2.832.782 0 2.295-1.254 4.541-3.76 2.247-2.507 5.144-5.794 8.692-9.863 3.548-4.07 7.747-8.317 12.598-12.744 4.85-4.428 10.367-8.692 16.552-12.793 3.45-2.41 6.315-3.614 8.594-3.614 1.042 0 2.067 1.433 3.076 4.297 1.01 2.865 1.514 5.762 1.514 8.692 0 1.432-1.4 3.613-4.2 6.542zm52.246 21.485l-17.383 14.746c-8.268 7.227-13.802 10.84-16.602 10.84-2.539 0-5.208-2.914-8.007-8.74-2.8-5.827-4.2-10.922-4.2-15.284 0-3.71.57-6.852 1.71-9.423 1.139-2.572 3.108-5.909 5.908-10.01 3.97-5.534 7.78-10.222 11.425-14.063 3.646-3.84 6.869-6.82 9.668-8.935 2.8-2.116 4.753-3.174 5.86-3.174 1.757 0 3.466.911 5.127 2.734 1.66 1.823 2.49 3.711 2.49 5.664 0 1.237-.895 3.223-2.686 5.957-1.79 2.735-4.622 6.202-8.496 10.4-3.874 4.2-9.26 9.23-16.162 15.089l-1.855 5.37c-.521 1.042-.782 1.954-.782 2.735 0 1.758.88 2.637 2.637 2.637 1.823 0 6.104-2.311 12.842-6.934 6.738-4.622 14.046-10.84 21.924-18.652 3.06-3.06 5.599-5.762 7.617-8.106a214.958 214.958 0 0 0 5.469-6.591c1.627-2.051 2.978-3.597 4.052-4.639 1.075-1.042 2.035-1.595 2.881-1.66 1.628-.196 2.897.488 3.809 2.05.911 1.563 1.367 3.874 1.367 6.934 0 1.758-.781 3.955-2.344 6.592-1.562 2.637-4.492 7.129-8.789 13.477a669.31 669.31 0 0 0-12.842 19.726c-4.264 6.804-8.61 14.47-13.037 22.998.196-.195 2.198-2.148 6.006-5.86 3.809-3.71 7.829-7.584 12.06-11.62 4.232-4.037 7.716-7.276 10.45-9.717 2.734-2.442 6.152-5.29 10.254-8.545v6.543c-8.79 9.44-16.748 18.392-23.877 26.855-7.13 8.464-12.63 15.235-16.504 20.313a4920.95 4920.95 0 0 1-6.787 8.887 185.845 185.845 0 0 0-4.736 6.396c-1.4 1.986-2.572 3.516-3.516 4.59-.944 1.074-1.71 1.611-2.295 1.611-1.367 0-2.588-1.35-3.662-4.052-1.074-2.702-1.611-5.095-1.611-7.178 0-1.888.358-3.548 1.074-4.98 4.687-10.548 15.202-28.874 31.543-54.981z"
        id="Anthony" />
    </g>
  </g>
</svg>