<?xml version="1.0" standalone="no"?>
<!DOCTYPE svg PUBLIC "-//W3C//DTD SVG 20010904//EN"
 "http://www.w3.org/TR/2001/REC-SVG-20010904/DTD/svg10.dtd">
<svg version="1.0" xmlns="http://www.w3.org/2000/svg"
 width="512.000000pt" height="512.000000pt" viewBox="0 0 512.000000 512.000000"
 preserveAspectRatio="xMidYMid meet">
<metadata>
Created by potrace 1.11, written by Peter Selinger 2001-2013
</metadata>
<g transform="translate(0.000000,512.000000) scale(0.100000,-0.100000)"
fill="#000000" stroke="none">
<path d="M2437 4514 c-1 -1 -54 -4 -117 -8 -605 -33 -1031 -268 -1238 -681
-53 -106 -111 -291 -126 -400 -10 -73 -15 -110 -21 -157 l-6 -48 471 0 c368 0
471 3 474 13 2 6 11 44 20 82 51 213 168 338 368 392 69 19 354 25 457 10 202
-29 335 -108 376 -225 23 -66 30 -179 15 -241 -25 -106 -136 -190 -310 -236
-61 -16 -183 -37 -290 -50 -25 -3 -56 -8 -70 -10 -14 -2 -50 -6 -80 -10 -118
-14 -138 -16 -240 -31 -687 -100 -1049 -316 -1218 -726 -32 -77 -64 -199 -78
-293 -10 -71 -12 -306 -4 -362 4 -27 11 -68 14 -93 17 -126 77 -279 156 -395
168 -247 468 -412 820 -452 114 -13 316 -7 425 12 306 54 577 200 835 451 48
47 77 69 81 61 4 -7 9 -41 13 -77 11 -118 33 -222 68 -312 l10 -28 529 0 528
0 3 23 c2 12 2 45 0 73 -3 46 -7 52 -38 69 -51 27 -104 83 -125 130 -40 90
-42 151 -45 1324 -1 624 -5 1158 -8 1186 -28 272 -106 457 -259 614 -171 175
-521 313 -957 376 -67 9 -425 26 -433 19z m679 -2256 c-4 -260 -7 -290 -32
-393 -56 -227 -156 -354 -367 -464 -68 -36 -191 -78 -282 -96 -75 -16 -250
-13 -315 4 -224 60 -329 205 -328 454 1 238 119 393 357 471 74 25 212 59 281
71 155 26 371 72 452 96 37 12 105 40 150 64 46 24 84 44 85 44 1 1 1 -113 -1
-251z"/>
</g>
</svg>
